Coordinates
version=1
nRows=9
nColumns=24
inDegrees=yes

Units are S.I. units (second, meters, Newtons, ...)
Angles are in degrees.

endheader
time	pelvis_tilt	pelvis_list	pelvis_rotation	pelvis_tx	pelvis_ty	pelvis_tz	hip_flexion_r	hip_adduction_r	hip_rotation_r	knee_angle_r	ankle_angle_r	subtalar_angle_r	mtp_angle_r	hip_flexion_l	hip_adduction_l	hip_rotation_l	knee_angle_l	ankle_angle_l	subtalar_angle_l	mtp_angle_l	lumbar_extension	lumbar_bending	lumbar_rotation
      3.51500000	     -1.60980459	      4.02838066	    359.07885782	     -0.25498598	      1.39294488	     -0.99688417	     26.61795373	     -2.84136840	      3.43121913	    -32.06475867	      3.11246019	     -4.39534808	     15.89091450	      0.13302645	      8.62928985	      2.95555379	     -8.03758517	      3.79607108	     -1.87749489	     16.22987776	    -13.33653041	      2.00088872	     -2.12518355
      3.52000000	     -1.62217703	      4.06037178	    359.19445351	     -0.25013511	      1.39245578	     -0.99684401	     26.43899464	     -2.94920152	      3.52673477	    -30.02545211	      2.64588114	     -4.59276290	     15.68743012	     -0.21899466	      8.66101434	      3.11276653	     -7.94647430	      4.07189405	     -1.77719274	     16.20617834	    -13.33728323	      1.92257961	     -2.08409701
      3.52500000	     -1.62708652	      4.12011362	    359.29786691	     -0.24522017	      1.39193411	     -0.99676488	     26.22199015	     -3.08722283	      3.64262553	    -27.93895748	      2.10103107	     -4.83880595	     15.51312108	     -0.59665209	      8.71905448	      3.21577538	     -7.82536940	      4.32412997	     -1.64722581	     16.14684038	    -13.33733209	      1.80308867	     -2.03867028
      3.53000000	     -1.62732598	      4.18982091	    359.38920276	     -0.24030748	      1.39134836	     -0.99665431	     25.97372919	     -3.23259808	      3.81677664	    -25.80983580	      1.52867900	     -5.08749065	     15.46547196	     -0.97331191	      8.78482364	      3.29483708	     -7.71955556	      4.61010490	     -1.45957222	     16.02277983	    -13.35072331	      1.67225876	     -1.94368435
      3.53500000	     -1.70878062	      4.29538208	    359.53078179	     -0.23538392	      1.39062831	     -0.99660170	     25.79910477	     -3.44153463	      3.97770770	    -23.68490573	      0.94599738	     -5.35732685	     15.29365953	     -1.24974178	      8.89344807	      3.47978948	     -7.63808191	      4.86305353	     -1.39816207	     15.96444202	    -13.26833186	      1.50697090	     -1.94973692
      3.54000000	     -1.75692915	      4.40713214	    359.65266381	     -0.23044844	      1.38988723	     -0.99652501	     25.56602842	     -3.65536351	      4.18479164	    -21.53814436	      0.34807758	     -5.63327555	     15.18133684	     -1.56849657	      9.00700107	      3.63397127	     -7.54836184	      5.11928121	     -1.31797531	     15.87573738	    -13.22499688	      1.33493603	     -1.89985585
      3.54500000	     -1.83667494	      4.53680313	    359.78076466	     -0.22550827	      1.38907488	     -0.99644946	     25.35711984	     -3.89690817	      4.41209874	    -19.40126417	     -0.25536823	     -5.91046307	     15.10466782	     -1.84698955	      9.13927731	      3.79813842	     -7.47121771	      5.37743103	     -1.24470598	     15.76859429	    -13.15645094	      1.14559118	     -1.84983124
      3.55000000	     -1.94198201	      4.67574839	    359.91757809	     -0.22053325	      1.38820616	     -0.99639727	     25.16002085	     -4.16024820	      4.64568382	    -17.27463165	     -0.84735662	     -6.17984298	     15.05105052	     -2.09644373	      9.28310738	      3.98385424	     -7.40492809	      5.63604374	     -1.19392551	     15.65480162	    -13.05154649	      0.95143379	     -1.80594999
      3.55500000	     -2.02122526	      4.82759101	    360.03755976	     -0.21554323	      1.38732251	     -0.99630955	     24.92326957	     -4.43846919	      4.90059382	    -15.15803572	     -1.46998916	     -6.47252087	     15.18979146	     -2.37936218	      9.43796587	      4.13806289	     -7.33277365	      5.89684346	     -1.10307598	     15.44695288	    -12.98745405	      0.74098589	     -1.69339292
